<svg version="1.1" id="Layer_1" xmlns="http://www.w3.org/2000/svg" xmlns:xlink="http://www.w3.org/1999/xlink" x="0px" y="0px" viewBox="0 0 128 128" style="enable-background:new 0 0 128 128;" xml:space="preserve">

<g>
	<g>
		<path d="M99,54c11,0,20,9,20,20s-9,20-20,20H29C18,94,9,85,9,74s9-20,20-20h5v-5c0-16.6,13.4-30,30-30s30,13.4,30,30
			v5H99z" style="fill:#FFFFFF;"></path>
	</g>
	<g>
		<circle cx="94" cy="34" r="25" style="fill:#FFFFFF;"></circle>
	</g>
	<g>
		<path d="M99,97H29C16.3,97,6,86.7,6,74s10.3-23,23-23h2v-2c0-18.2,14.8-33,33-33s33,14.8,33,33v2h2
			c12.7,0,23,10.3,23,23S111.7,97,99,97z M29,57c-9.4,0-17,7.6-17,17s7.6,17,17,17h70c9.4,0,17-7.6,17-17s-7.6-17-17-17h-5
			c-1.7,0-3-1.3-3-3v-5c0-14.9-12.1-27-27-27S37,34.1,37,49v5c0,1.7-1.3,3-3,3H29z" style="fill:#444B54;"></path>
	</g>
	<g>
		<path d="M116.9,47.1c-0.4,0-0.8-0.1-1.2-0.3c-1.5-0.7-2.2-2.4-1.5-4c1.2-2.8,1.9-5.8,1.9-8.9c0-12.1-9.9-22-22-22
			c-3.7,0-7.3,0.9-10.5,2.7c-1.5,0.8-3.3,0.3-4.1-1.2s-0.3-3.3,1.2-4.1C84.7,7.2,89.3,6,94,6c15.4,0,28,12.6,28,28
			c0,3.9-0.8,7.7-2.4,11.3C119.1,46.4,118,47.1,116.9,47.1z" style="fill:#71C2FF;"></path>
	</g>
</g>
</svg>