<svg version="1.1" id="Layer_1" xmlns="http://www.w3.org/2000/svg" xmlns:xlink="http://www.w3.org/1999/xlink" x="0px" y="0px" viewBox="0 0 128 128" style="enable-background:new 0 0 128 128;" xml:space="preserve">

<g>
	<g>
		<path d="M99,62c11,0,20,9,20,20s-9,20-20,20H29c-11,0-20-9-20-20s9-20,20-20h5v-5c0-16.6,13.4-30,30-30s30,13.4,30,30
			v5H99z" style="fill:#FFFFFF;"></path>
	</g>
	<g>
		<path d="M99,105H29C16.3,105,6,94.7,6,82s10.3-23,23-23h2v-2c0-18.2,14.8-33,33-33s33,14.8,33,33v2h2
			c12.7,0,23,10.3,23,23S111.7,105,99,105z M29,65c-9.4,0-17,7.6-17,17s7.6,17,17,17h70c9.4,0,17-7.6,17-17s-7.6-17-17-17h-5
			c-1.7,0-3-1.3-3-3v-5c0-14.9-12.1-27-27-27S37,42.1,37,57v5c0,1.7-1.3,3-3,3H29z" style="fill:#444B54;"></path>
	</g>
</g>
</svg>