<svg version="1.1" id="Layer_1" xmlns="http://www.w3.org/2000/svg" xmlns:xlink="http://www.w3.org/1999/xlink" x="0px" y="0px" viewBox="0 0 128 128" style="enable-background:new 0 0 128 128;" xml:space="preserve">

<g>
	<g>
		<path d="M99,54c11,0,20,9,20,20s-9,20-20,20H29C18,94,9,85,9,74s9-20,20-20h5v-5c0-16.6,13.4-30,30-30s30,13.4,30,30
			v5H99z" style="fill:#FFFFFF;"></path>
	</g>
	<g>
		<path d="M99,97c-1.7,0-3-1.3-3-3s1.3-3,3-3c9.4,0,17-7.6,17-17s-7.6-17-17-17h-5c-1.7,0-3-1.3-3-3v-5
			c0-14.9-12.1-27-27-27S37,34.1,37,49v5c0,1.7-1.3,3-3,3h-5c-9.4,0-17,7.6-17,17s7.6,17,17,17c1.7,0,3,1.3,3,3s-1.3,3-3,3
			C16.3,97,6,86.7,6,74s10.3-23,23-23h2v-2c0-18.2,14.8-33,33-33s33,14.8,33,33v2h2c12.7,0,23,10.3,23,23S111.7,97,99,97z" style="fill:#444B54;"></path>
	</g>
	<g>
		<path d="M78,107c-0.5,0-0.9-0.1-1.3-0.3c-1.5-0.7-2.1-2.5-1.3-4l5-10c0.7-1.5,2.5-2.1,4-1.3c1.5,0.7,2.1,2.5,1.3,4
			l-5,10C80.2,106.4,79.1,107,78,107z" style="fill:#71C2FF;"></path>
	</g>
	<g>
		<path d="M73,117c-0.2,0-0.4,0-0.6-0.1c-0.2,0-0.4-0.1-0.6-0.2c-0.2-0.1-0.3-0.2-0.5-0.3c-0.2-0.1-0.3-0.2-0.5-0.4
			c-0.1-0.1-0.3-0.3-0.4-0.4c-0.1-0.2-0.2-0.3-0.3-0.5c-0.1-0.2-0.1-0.4-0.2-0.6c0-0.2-0.1-0.4-0.1-0.6c0-0.2,0-0.4,0.1-0.6
			c0-0.2,0.1-0.4,0.2-0.6c0.1-0.2,0.2-0.3,0.3-0.5c0.1-0.2,0.2-0.3,0.4-0.4s0.3-0.3,0.5-0.4c0.2-0.1,0.3-0.2,0.5-0.3
			c0.2-0.1,0.4-0.1,0.6-0.2c0.4-0.1,0.8-0.1,1.2,0c0.2,0,0.4,0.1,0.6,0.2c0.2,0.1,0.4,0.2,0.5,0.3c0.2,0.1,0.3,0.2,0.5,0.4
			c0.1,0.1,0.3,0.3,0.4,0.4c0.1,0.2,0.2,0.3,0.3,0.5c0.1,0.2,0.1,0.4,0.2,0.6c0,0.2,0.1,0.4,0.1,0.6c0,0.2,0,0.4-0.1,0.6
			c0,0.2-0.1,0.4-0.2,0.6c-0.1,0.2-0.2,0.4-0.3,0.5c-0.1,0.2-0.2,0.3-0.4,0.4c-0.1,0.1-0.3,0.3-0.5,0.4c-0.2,0.1-0.3,0.2-0.5,0.3
			c-0.2,0.1-0.4,0.1-0.6,0.2C73.4,117,73.2,117,73,117z" style="fill:#71C2FF;"></path>
	</g>
	<g>
		<path d="M56,117c-0.5,0-0.9-0.1-1.3-0.3c-1.5-0.7-2.1-2.5-1.3-4l10-20c0.7-1.5,2.5-2.1,4-1.3c1.5,0.7,2.1,2.5,1.3,4
			l-10,20C58.2,116.4,57.1,117,56,117z" style="fill:#71C2FF;"></path>
	</g>
	<g>
		<path d="M39,117c-0.5,0-0.9-0.1-1.3-0.3c-1.5-0.7-2.1-2.5-1.3-4l10-20c0.7-1.5,2.5-2.1,4-1.3c1.5,0.7,2.1,2.5,1.3,4
			l-10,20C41.2,116.4,40.1,117,39,117z" style="fill:#71C2FF;"></path>
	</g>
</g>
</svg>