<svg version="1.1" xmlns="http://www.w3.org/2000/svg" xmlns:xlink="http://www.w3.org/1999/xlink" viewBox="0 0 252 252"><g fill="none" fill-rule="nonzero" stroke="none" stroke-width="1" stroke-linecap="butt" stroke-linejoin="miter" stroke-miterlimit="10" stroke-dasharray="" stroke-dashoffset="0" font-family="none" font-weight="none" font-size="none" text-anchor="none" style="mix-blend-mode: normal"><path d="M0,252v-252h252v252z" fill="none"></path><g id="Layer_1"><g><g fill="#ffffff"><path d="M149.625,62.60625c-11.22188,-26.38125 -37.40625,-44.8875 -67.92187,-44.8875c-40.75312,0 -73.82812,33.075 -73.82812,73.82813c0,40.75313 33.075,73.82813 73.82813,73.82813h118.125c24.4125,0 44.29688,-19.88437 44.29688,-44.29687c0,-24.4125 -19.88437,-44.29687 -44.29687,-44.29687c-19.49063,0 -36.02812,12.6 -41.93437,30.12187"></path></g><g fill="#444b54"><path d="M199.82813,171.28125c-3.34688,0 -5.90625,-2.55937 -5.90625,-5.90625c0,-3.34688 2.55937,-5.90625 5.90625,-5.90625c21.2625,0 38.39063,-17.12813 38.39063,-38.39062c0,-21.2625 -17.12813,-38.39062 -38.39062,-38.39062c-16.5375,0 -31.10625,10.43437 -36.42187,26.18437c-0.98437,3.15 -4.33125,4.725 -7.48125,3.74063c-3.15,-0.98437 -4.725,-4.33125 -3.74063,-7.48125c6.89063,-20.475 26.18437,-34.25625 47.64375,-34.25625c27.75937,0 50.20313,22.44375 50.20313,50.20313c0,27.75937 -22.44375,50.20313 -50.20312,50.20313z"></path></g><g fill="#444b54"><path d="M81.70313,171.28125c-43.90312,0 -79.73437,-35.83125 -79.73437,-79.73437c0,-43.90312 35.83125,-79.73437 79.73438,-79.73437c32.09062,0 60.83438,19.09687 73.43437,48.43125c1.37813,2.95313 -0.19687,6.49687 -3.15,7.67812c-2.95312,1.37813 -6.49687,-0.19688 -7.67813,-3.15c-10.63125,-25.00312 -35.24062,-41.34375 -62.40937,-41.34375c-37.60312,0.19688 -68.11875,30.7125 -68.11875,68.11875c0,37.40625 30.51563,67.92188 67.92188,67.92188c3.34688,0 5.90625,2.55937 5.90625,5.90625c0,3.34688 -2.55937,5.90625 -5.90625,5.90625z"></path></g><path d="M173.25,198.84375h-23.23125l11.61562,-20.08125c1.575,-2.75625 0.59063,-6.49687 -2.16562,-8.07187c-2.75625,-1.575 -6.49687,-0.59062 -8.07187,2.16562l-11.61563,20.08125l-11.61563,-20.08125c-1.575,-2.75625 -5.31562,-3.74062 -8.07187,-2.16562c-2.75625,1.575 -3.74062,5.31563 -2.16563,8.07187l11.61563,20.08125h-23.23125c-3.34688,0 -5.90625,2.55937 -5.90625,5.90625c0,3.34688 2.55937,5.90625 5.90625,5.90625h23.23125l-11.61562,20.08125c-1.575,2.75625 -0.59062,6.49687 2.16563,8.07187c0.98438,0.59062 1.96875,0.7875 2.95313,0.7875c1.96875,0 3.9375,-0.98437 5.11875,-2.95312l11.61563,-20.08125l11.61563,20.08125c1.18125,1.96875 3.15,2.95313 5.11875,2.95313c0.98438,0 1.96875,-0.19688 2.95313,-0.7875c2.75625,-1.575 3.74063,-5.31563 2.16562,-8.07187l-11.61562,-20.08125h23.23125c3.34688,0 5.90625,-2.55937 5.90625,-5.90625c0,-3.34688 -2.55937,-5.90625 -5.90625,-5.90625z" fill="#444b54"></path></g></g></g></svg>