<svg version="1.1" id="Layer_1" xmlns="http://www.w3.org/2000/svg" xmlns:xlink="http://www.w3.org/1999/xlink" x="0px" y="0px" viewBox="0 0 128 128" style="enable-background:new 0 0 128 128;" xml:space="preserve">

<g>
	<g>
		<path d="M99,64c11,0,20,9,20,20s-9,20-20,20H29c-11,0-20-9-20-20s9-20,20-20h5v-5c0-16.6,13.4-30,30-30s30,13.4,30,30
			v5H99z" style="fill:#FFFFFF;"></path>
	</g>
	<g>
		<path d="M99,107c-1.7,0-3-1.3-3-3s1.3-3,3-3c9.4,0,17-7.6,17-17s-7.6-17-17-17h-5c-1.7,0-3-1.3-3-3v-5
			c0-14.9-12.1-27-27-27S37,44.1,37,59v5c0,1.7-1.3,3-3,3h-5c-9.4,0-17,7.6-17,17s7.6,17,17,17c1.7,0,3,1.3,3,3s-1.3,3-3,3
			C16.3,107,6,96.7,6,84s10.3-23,23-23h2v-2c0-18.2,14.8-33,33-33s33,14.8,33,33v2h2c12.7,0,23,10.3,23,23S111.7,107,99,107z" style="fill:#444B54;"></path>
	</g>
	<g>
		<g>
			<g>
				<g>
					<path d="M51.1,102.5l18.1-29.9c0.6-1,2.1-0.4,1.8,0.7l-4.7,23.5H76c0.8,0,1.3,0.9,0.8,1.6l-18.4,25.2
						c-0.6,0.9-2,0.2-1.8-0.8l4.6-18.8H52C51.2,104,50.7,103.2,51.1,102.5z" style="fill:#FF5576;"></path>
				</g>
			</g>
		</g>
	</g>
</g>
</svg>